<?xml version="1.0" encoding="UTF-8" standalone="no"?>
<svg
   width="184"
   height="64.377998"
   viewBox="0 0 184 64.377998"
   fill="none"
   version="1.1"
   id="svg17"
   xmlns="http://www.w3.org/2000/svg"
   xmlns:svg="http://www.w3.org/2000/svg">
  <defs
     id="defs17" />
  <path
     d="m 25.6431,61.0232 c -0.7339,0.172 -1.511,0.3225 -2.3312,0.4516 -0.7771,0.086 -1.6836,0.129 -2.7197,0.129 -2.6334,0 -5.202,-0.5161 -7.7059,-1.5484 C 10.4256,59.0232 8.2455,57.5823 6.34601,55.7328 4.44653,53.8834 2.91399,51.7113 1.74839,49.2167 0.582797,46.7221 0,44.0124 0,41.0877 c 0,-2.8387 0.539627,-5.5054 1.61888,-8 1.07926,-2.4947 2.54704,-4.6667 4.40336,-6.5162 1.85631,-1.8924 4.03636,-3.3763 6.54026,-4.4516 2.5039,-1.0752 5.1804,-1.6129 8.0297,-1.6129 2.8492,0 5.5257,0.5377 8.0296,1.6129 2.5039,1.0753 4.684,2.5592 6.5403,4.4516 1.8995,1.8495 3.3889,4.0215 4.4681,6.5162 1.0793,2.4946 1.6189,5.1613 1.6189,8 0,2.0215 -0.2806,3.9785 -0.8418,5.8709 -0.5612,1.8495 -1.3599,3.5699 -2.396,5.1613 -0.9929,1.5484 -2.2016,2.9678 -3.6263,4.2581 -1.4246,1.2473 -2.9787,2.2796 -4.6623,3.0968 0.3021,0.301 0.7123,0.5161 1.2303,0.6451 0.518,0.086 1.0145,0.1936 1.4894,0.3226 0.518,0.129 0.9497,0.3226 1.2951,0.5807 0.3453,0.258 0.518,0.7096 0.518,1.3548 0,0.5591 -0.1942,1.0323 -0.5828,1.4193 -0.3885,0.3871 -0.8634,0.5807 -1.4246,0.5807 -1.4246,0 -2.6981,-0.3226 -3.8205,-0.9677 -1.1225,-0.6452 -2.0506,-1.4409 -2.7845,-2.3871 z M 12.8215,54.4425 c 0,-1.2043 0.1943,-2.3011 0.5828,-3.2903 0.4317,-1.0323 0.993,-1.914 1.6837,-2.6452 0.7339,-0.7742 1.5541,-1.3548 2.4607,-1.7419 0.9497,-0.4301 1.9642,-0.6452 3.0435,-0.6452 1.0361,0 2.0074,0.2151 2.914,0.6452 0.9497,0.3871 1.7699,0.9462 2.4607,1.6774 0.7338,0.6882 1.2951,1.5054 1.6836,2.4516 0.4317,0.9032 0.6475,1.871 0.6475,2.9032 v 0.7097 l -0.1942,1.3549 c 1.3383,-0.6882 2.5686,-1.5269 3.691,-2.5162 1.1224,-1.0322 2.0722,-2.172 2.8493,-3.4193 0.8202,-1.2903 1.4462,-2.6667 1.8779,-4.1291 0.4748,-1.5053 0.7123,-3.0752 0.7123,-4.7096 0,-2.2796 -0.4317,-4.4301 -1.2951,-6.4516 -0.8634,-2.0215 -2.0506,-3.785 -3.5616,-5.2904 -1.5109,-1.5053 -3.2809,-2.6881 -5.3099,-3.5484 -2.029,-0.8602 -4.1875,-1.2903 -6.4755,-1.2903 -2.2881,0 -4.4466,0.4301 -6.4756,1.2903 -2.029,0.8603 -3.7989,2.0431 -5.30989,3.5484 -1.46778,1.5054 -2.63338,3.2689 -3.49678,5.2904 -0.8634,2.0215 -1.29511,4.172 -1.29511,6.4516 0,3.2258 0.82024,6.1505 2.46071,8.7742 1.64046,2.5806 3.79897,4.5591 6.47547,5.9354 z m 7.7707,3.1613 c 1.0361,0 1.921,-0.3656 2.6549,-1.0968 0.7339,-0.7312 1.1009,-1.6129 1.1009,-2.6451 0,-1.0323 -0.367,-1.914 -1.1009,-2.6452 -0.7339,-0.7312 -1.6188,-1.0968 -2.6549,-1.0968 -1.0361,0 -1.9211,0.3656 -2.655,1.0968 -0.7339,0.7312 -1.1008,1.6129 -1.1008,2.6452 0,0.9892 0.3453,1.8494 1.036,2.5806 0.6908,0.6882 1.5973,1.0753 2.7198,1.1613 z"
     fill="black"
     id="path1"
     style="fill:#808080;fill-opacity:1" />
  <path
     d="m 63.9266,31.4748 c 0.1295,-0.3441 0.3669,-0.6237 0.7123,-0.8387 0.3453,-0.2151 0.7123,-0.3226 1.1008,-0.3226 0.6044,0 1.0793,0.215 1.4246,0.6451 0.3886,0.3871 0.5828,0.8172 0.5828,1.2904 0,0.258 -0.0647,0.5161 -0.1942,0.7742 -0.0432,0.043 -0.1511,0.301 -0.3238,0.7741 -0.1295,0.4302 -0.3885,1.1613 -0.7771,2.1936 -0.3885,0.9892 -0.9065,2.3226 -1.5541,4 -0.6044,1.6774 -1.3814,3.7849 -2.3312,6.3226 l 2.9788,8.0645 8.7419,-22.9032 c 0.1295,-0.3441 0.367,-0.6237 0.7123,-0.8387 0.3454,-0.2151 0.7123,-0.3226 1.1009,-0.3226 0.6043,0 1.0792,0.215 1.4246,0.6451 0.3885,0.3871 0.5828,0.8172 0.5828,1.2904 0,0.258 -0.0648,0.5161 -0.1943,0.7742 -0.0432,0.086 -0.2158,0.5376 -0.518,1.3548 -0.2591,0.7742 -0.7771,2.172 -1.5542,4.1935 -0.7339,2.0215 -1.7699,4.7742 -3.1082,8.2581 -1.2951,3.4409 -2.9788,7.828 -5.0509,13.1613 -0.1727,0.4731 -0.4317,0.8602 -0.7771,1.1613 -0.3022,0.3011 -0.7555,0.4516 -1.3598,0.4516 -0.6044,0 -1.1009,-0.172 -1.4894,-0.5161 -0.3454,-0.3871 -0.5828,-0.7527 -0.7123,-1.0968 -0.5612,-1.5054 -1.0793,-2.9462 -1.5541,-4.3226 -0.4749,-1.4193 -0.9282,-2.7312 -1.3599,-3.9355 -0.4749,1.2043 -0.9713,2.5162 -1.4894,3.9355 -0.4748,1.3764 -1.0145,2.8172 -1.6189,4.3226 -0.1726,0.4731 -0.4317,0.8602 -0.777,1.1613 -0.3022,0.3011 -0.7555,0.4516 -1.3599,0.4516 -0.6044,0 -1.1008,-0.172 -1.4894,-0.5161 -0.3453,-0.3871 -0.5828,-0.7527 -0.7123,-1.0968 -1.8131,-4.9462 -3.3456,-9.1183 -4.5976,-12.5161 -1.2519,-3.4409 -2.2664,-6.1936 -3.0435,-8.2581 -0.777,-2.1075 -1.3383,-3.6344 -1.6836,-4.5806 -0.3454,-0.9463 -0.5181,-1.4409 -0.5181,-1.4839 -0.1295,-0.2581 -0.1942,-0.5592 -0.1942,-0.9032 0,-0.5592 0.1511,-1.0108 0.4533,-1.3549 0.3453,-0.3871 0.8202,-0.5806 1.4246,-0.5806 0.4749,0 0.885,0.1075 1.2303,0.3226 0.3454,0.215 0.5828,0.4946 0.7123,0.8387 l 8.4182,22.9032 3.1083,-8.129 C 57.4295,43.9264 56.6956,41.9479 56.0912,40.3135 55.4868,38.6361 54.9904,37.2812 54.6018,36.249 54.2133,35.2167 53.9327,34.464 53.76,33.9909 53.5873,33.4748 53.501,33.1952 53.501,33.1522 53.3715,32.8941 53.3067,32.593 53.3067,32.249 c 0,-0.5592 0.1511,-1.0108 0.4533,-1.3549 0.3454,-0.3871 0.8202,-0.5806 1.4246,-0.5806 0.4749,0 0.885,0.1075 1.2304,0.3226 0.3453,0.215 0.5828,0.4946 0.7123,0.8387 l 3.3025,9.3548 z"
     fill="black"
     id="path2"
     style="fill:#808080;fill-opacity:1" />
  <path
     d="m 82.4339,47.9264 c 0.2159,1.3763 0.6692,2.6666 1.3599,3.8709 0.6907,1.1613 1.5325,2.1721 2.5254,3.0323 1.0361,0.8602 2.2017,1.5484 3.4968,2.0645 1.2951,0.4731 2.655,0.7097 4.0796,0.7097 1.5973,0 3.0867,-0.2796 4.4681,-0.8387 1.3815,-0.6022 2.6123,-1.4194 3.6913,-2.4516 0.388,-0.3871 0.863,-0.5807 1.424,-0.5807 0.562,0 1.036,0.1936 1.425,0.5807 0.389,0.3871 0.583,0.8602 0.583,1.4193 0,0.5592 -0.194,1.0323 -0.583,1.4194 -1.425,1.5914 -3.043,2.7312 -4.857,3.4193 -1.7696,0.6452 -3.8202,0.9678 -6.1514,0.9678 -2.1585,0 -4.1875,-0.3871 -6.087,-1.1613 -1.8563,-0.7742 -3.4968,-1.8495 -4.9214,-3.2258 -1.4246,-1.3764 -2.547,-3.0108 -3.3673,-4.9032 -0.8202,-1.8925 -1.2303,-3.957 -1.2303,-6.1936 0,-2.1505 0.3885,-4.1505 1.1656,-6 0.8202,-1.8925 1.9211,-3.5269 3.3025,-4.9032 1.4246,-1.4194 3.0867,-2.5376 4.9862,-3.3549 1.9426,-0.8602 4.0364,-1.3333 6.2812,-1.4193 2.029,0 3.9717,0.4086 5.828,1.2258 1.8999,0.8172 3.5619,1.9355 4.9859,3.3548 1.425,1.4194 2.569,3.0753 3.432,4.9678 0.864,1.8494 1.295,3.8494 1.295,6 0,0.6451 -0.215,1.1398 -0.647,1.4838 -0.432,0.3441 -0.885,0.5162 -1.36,0.5162 z m 22.9231,-4 c -0.259,-1.3334 -0.734,-2.5807 -1.424,-3.742 -0.691,-1.1612 -1.554,-2.1505 -2.591,-2.9677 -0.992,-0.8602 -2.1365,-1.5269 -3.4316,-2 -1.2519,-0.5161 -2.5902,-0.7742 -4.0148,-0.7742 -1.4246,0 -2.7845,0.2581 -4.0796,0.7742 -1.2519,0.4731 -2.3959,1.1398 -3.432,2 -0.9929,0.8172 -1.8347,1.8065 -2.5255,2.9677 -0.6475,1.1613 -1.1008,2.4086 -1.3598,3.742 z"
     fill="black"
     id="path3"
     style="fill:#808080;fill-opacity:1" />
  <path
     d="m 112.512,32.249 c 0,-0.5592 0.194,-1.0323 0.583,-1.4194 0.388,-0.3871 0.863,-0.5806 1.424,-0.5806 0.561,0 1.036,0.1935 1.425,0.5806 0.388,0.3871 0.583,0.8602 0.583,1.4194 v 0.8387 c 0.992,-0.8602 2.136,-1.5484 3.432,-2.0645 1.295,-0.5162 2.676,-0.7742 4.144,-0.7742 1.597,0 3.108,0.301 4.533,0.9032 1.424,0.6021 2.655,1.4408 3.691,2.5161 1.079,1.0323 1.921,2.2581 2.525,3.6774 0.605,1.4194 0.907,2.9248 0.907,4.5162 v 17.7419 c 0,0.5591 -0.194,1.0323 -0.583,1.4194 -0.388,0.3871 -0.863,0.5806 -1.425,0.5806 -0.561,0 -1.036,-0.1935 -1.424,-0.5806 -0.389,-0.3871 -0.583,-0.8603 -0.583,-1.4194 V 41.8619 c 0,-1.0323 -0.216,-2 -0.648,-2.9033 -0.388,-0.9462 -0.928,-1.7634 -1.618,-2.4516 -0.691,-0.6881 -1.511,-1.2258 -2.461,-1.6129 -0.907,-0.3871 -1.878,-0.5806 -2.914,-0.5806 -1.036,0 -2.007,0.1935 -2.914,0.5806 -0.907,0.3871 -1.705,0.9032 -2.396,1.5484 -0.691,0.6452 -1.23,1.4194 -1.619,2.3226 -0.388,0.8602 -0.604,1.7849 -0.647,2.7742 v 18.0645 c 0,0.5591 -0.195,1.0323 -0.583,1.4194 -0.389,0.3871 -0.864,0.5806 -1.425,0.5806 -0.561,0 -1.036,-0.1935 -1.424,-0.5806 -0.389,-0.3871 -0.583,-0.8603 -0.583,-1.4194 z"
     fill="black"
     id="path4"
     style="fill:#808080;fill-opacity:1" />
  <path
     d="m 143.234,22.378 c 0,-0.5591 0.194,-1.0323 0.583,-1.4194 0.388,-0.3871 0.863,-0.5806 1.424,-0.5806 0.562,0 1.037,0.1935 1.425,0.5806 0.389,0.3871 0.583,0.8603 0.583,1.4194 v 7.871 h 4.274 c 0.561,0 1.036,0.1935 1.424,0.5806 0.389,0.3871 0.583,0.8602 0.583,1.4194 0,0.5591 -0.194,1.0322 -0.583,1.4193 -0.388,0.3871 -0.863,0.5807 -1.424,0.5807 h -4.274 v 25.3548 c 0,0.5591 -0.194,1.0323 -0.583,1.4194 -0.388,0.3871 -0.863,0.5806 -1.425,0.5806 -0.561,0 -1.036,-0.1935 -1.424,-0.5806 -0.389,-0.3871 -0.583,-0.8603 -0.583,-1.4194 V 34.249 h -4.274 c -0.561,0 -1.036,-0.1936 -1.424,-0.5807 -0.389,-0.3871 -0.583,-0.8602 -0.583,-1.4193 0,-0.5592 0.194,-1.0323 0.583,-1.4194 0.388,-0.3871 0.863,-0.5806 1.424,-0.5806 h 4.274 z"
     fill="black"
     id="path5"
     style="fill:#808080;fill-opacity:1" />
  <path
     d="m 179.985,55.7328 c -1.424,1.5914 -3.151,2.9678 -5.18,4.1291 -1.986,1.1182 -4.145,1.6774 -6.476,1.6774 -2.158,0 -4.187,-0.3871 -6.087,-1.1613 -1.856,-0.7742 -3.497,-1.8495 -4.921,-3.2258 -1.425,-1.3764 -2.547,-3.0108 -3.367,-4.9032 -0.821,-1.8925 -1.231,-3.957 -1.231,-6.1936 0,-2.1505 0.389,-4.172 1.166,-6.0645 0.82,-1.9355 1.921,-3.6129 3.302,-5.0323 1.425,-1.4193 3.087,-2.5376 4.986,-3.3548 1.943,-0.8172 4.037,-1.2258 6.282,-1.2258 2.072,0 4.036,0.4301 5.892,1.2903 1.9,0.8172 3.562,1.9355 4.987,3.3549 1.424,1.4193 2.382,1.726 2.382,1.726 C 176.943,32.3748 184,23.7275 184,25.878 v 33.7903 c 0,0.5592 -0.194,1.0323 -0.583,1.4194 -0.388,0.3871 -0.863,0.5806 -1.424,0.5806 -0.562,0 -1.036,-0.1935 -1.425,-0.5806 -0.389,-0.3871 -0.583,-0.8602 -0.583,-1.4194 z m 0,-9.6774 c 0,-1.5914 -0.302,-3.0968 -0.906,-4.5161 -0.605,-1.4194 -1.447,-2.6452 -2.526,-3.6774 -1.036,-1.0753 -2.266,-1.914 -3.691,-2.5162 -1.425,-0.6021 -2.935,-0.9032 -4.533,-0.9032 -1.597,0 -3.108,0.3011 -4.533,0.9032 -1.381,0.6022 -2.611,1.4409 -3.691,2.5162 -1.036,1.0322 -1.856,2.258 -2.46,3.6774 -0.605,1.4193 -0.907,2.9247 -0.907,4.5161 0,1.5914 0.302,3.0968 0.907,4.5161 0.604,1.3764 1.424,2.6022 2.46,3.6775 1.08,1.0322 2.31,1.8494 3.691,2.4516 1.425,0.6021 2.936,0.9032 4.533,0.9032 1.554,0 3.022,-0.2796 4.404,-0.8387 1.381,-0.6022 2.59,-1.4194 3.626,-2.4516 1.079,-1.0323 1.921,-2.2366 2.525,-3.6129 0.648,-1.4194 1.015,-2.9678 1.101,-4.6452 z"
     fill="black"
     id="path6"
     style="fill:#808080;fill-opacity:1" />
  <path
     d="M 9.61412,0.743909 H 12.1019 V 13.2128 H 10.7311 V 1.89359 L 10.7734,1.91049 7.59175,13.2128 H 5.52707 L 2.3285,1.90204 2.37081,1.88513 V 13.2128 H 1 V 0.743909 H 3.48777 L 6.55095,12.0547 H 6.53402 Z"
     fill="black"
     id="path7"
     style="fill:#808080;fill-opacity:1" />
  <path
     d="M 15.4351,2.01193 16.0866,1.19194 V 6.82198 L 15.7312,6.32322 h 4.7894 v 1.26803 h -4.7894 l 0.3554,-0.49876 v 5.67231 l -0.6515,-0.82 h 6.0248 v 1.268 H 14.6396 V 0.743909 h 6.8203 V 2.01193 Z"
     fill="black"
     id="path8"
     style="fill:#808080;fill-opacity:1" />
  <path
     d="M 25.2498,13.2128 H 23.8452 V 0.743909 h 2.3608 l 5.2971,11.640491 -0.11,0.0676 V 0.743909 h 1.4047 V 13.2128 H 30.4031 L 25.1229,1.58926 25.2498,1.53008 Z"
     fill="black"
     id="path9"
     style="fill:#808080;fill-opacity:1" />
  <path
     d="m 43.7545,8.61412 c 0,1.61748 -0.378,2.81788 -1.1339,3.60118 -0.7559,0.7777 -1.808,1.1666 -3.1563,1.1666 -1.3426,0 -2.3918,-0.3889 -3.1478,-1.1666 -0.7559,-0.7833 -1.1338,-1.9837 -1.1338,-3.60118 0,-0.24797 0,-0.51002 0,-0.78617 0,-0.28179 0,-0.57766 0,-0.88762 V 0.743909 h 1.4469 V 7.06713 c 0,0.29306 0,0.56639 0,0.81999 0,0.25361 0,0.48749 0,0.70164 0,1.25112 0.2398,2.14724 0.7193,2.68824 0.4795,0.5354 1.1846,0.8031 2.1154,0.8031 0.9365,0 1.6444,-0.2677 2.124,-0.8031 0.4851,-0.541 0.7277,-1.43712 0.7277,-2.68824 V 0.743909 h 1.4385 z"
     fill="black"
     id="path10"
     style="fill:#808080;fill-opacity:1" />
  <path
     d="m 59.1289,0.743909 h 2.4878 V 13.2128 H 60.2459 V 1.89359 l 0.0423,0.0169 -3.1817,11.30231 H 55.0419 L 51.8433,1.90204 51.8856,1.88513 V 13.2128 H 50.5148 V 0.743909 h 2.4878 L 56.0657,12.0547 h -0.0169 z"
     fill="black"
     id="path11"
     style="fill:#808080;fill-opacity:1" />
  <path
     d="M 63.4891,13.2128 66.9246,0.710094 h 2.2509 L 72.5856,13.2128 H 71.0963 L 68.0416,1.64843 h 0.0169 L 64.9784,13.2128 Z m 1.777,-3.30529 V 8.63948 h 5.5679 v 1.26803 z"
     fill="black"
     id="path12"
     style="fill:#808080;fill-opacity:1" />
  <path
     d="m 77.4159,6.89806 0.0339,-1.11586 4.9925,7.4306 H 80.8091 L 76.5444,6.90652 77.289,6.9995 75.5966,9.21432 75.749,8.27598 V 13.2128 H 74.302 V 0.743909 h 1.447 V 7.5997 l -0.2877,-0.30432 5.094,-6.551471 h 1.5823 z"
     fill="black"
     id="path13"
     style="fill:#808080;fill-opacity:1" />
  <path
     d="M 85.0301,2.01193 85.6817,1.19194 V 6.82198 L 85.3263,6.32322 h 4.7894 v 1.26803 h -4.7894 l 0.3554,-0.49876 v 5.67231 l -0.6516,-0.82 h 6.0248 v 1.268 H 84.2347 V 0.743909 h 6.8202 V 2.01193 Z"
     fill="black"
     id="path14"
     style="fill:#808080;fill-opacity:1" />
  <path
     d="M 93.4402,13.2128 V 0.743909 h 4.3325 c 1.1451,0 2.0167,0.270511 2.6143,0.811541 0.598,0.54102 0.897,1.36665 0.897,2.47687 0,0.66501 -0.127,1.2314 -0.38,1.69916 -0.249,0.46212 -0.55,0.81999 -0.9059,1.07359 -0.3497,0.25361 -0.6741,0.39732 -0.9731,0.43113 0.3047,0.02254 0.6036,0.10708 0.897,0.25361 0.299,0.14089 0.547,0.36068 0.745,0.65937 0.197,0.29869 0.296,0.69882 0.296,1.2004 0,0.46212 0,0.93552 0,1.42022 0,0.479 0,0.9524 0,1.4202 0,0.2423 0.02,0.4593 0.059,0.6509 0.04,0.186 0.085,0.3099 0.135,0.3719 h -1.455 c -0.0395,-0.0732 -0.079,-0.2 -0.1185,-0.3804 -0.0395,-0.1803 -0.0592,-0.3945 -0.0592,-0.6424 0,-0.434 0,-0.8764 0,-1.3272 0,-0.4509 0,-0.89612 0,-1.3357 0,-0.55229 -0.1749,-0.9637 -0.5247,-1.23421 C 98.6499,8.02238 98.1563,7.88712 97.5188,7.88712 H 94.4472 L 94.8534,7.33764 V 13.2128 Z M 94.8534,7.2193 94.4472,6.6191 h 3.0885 c 0.4175,0 0.7955,-0.10145 1.1339,-0.30433 0.3441,-0.20852 0.6177,-0.49594 0.8208,-0.86226 0.2088,-0.37195 0.3131,-0.8059 0.3131,-1.30184 0,-0.77209 -0.2031,-1.32156 -0.6092,-1.64843 C 98.7881,2.17537 98.2014,2.01193 97.4342,2.01193 h -3.0209 l 0.4401,-0.62555 z"
     fill="black"
     id="path15"
     style="fill:#808080;fill-opacity:1" />
  <path
     d="m 112.229,13.3819 c -0.694,0 -1.342,-0.1691 -1.946,-0.5072 -0.604,-0.3438 -1.094,-0.8144 -1.472,-1.4117 -0.373,-0.5974 -0.559,-1.2793 -0.559,-2.04579 0,-0.01691 0,-0.031 0,-0.04227 0,-0.01127 0,-0.02536 0,-0.04227 l 1.033,-0.02536 c 0,0.01127 0,0.02536 0,0.04227 0,0.01127 0,0.02254 0,0.03381 0,0.48467 0.126,0.92711 0.38,1.32721 0.26,0.4001 0.598,0.7185 1.016,0.9552 0.417,0.2367 0.866,0.3551 1.345,0.3551 0.796,0 1.456,-0.2705 1.98,-0.8116 0.531,-0.5466 0.796,-1.37787 0.796,-2.49373 0,-1.1215 -0.263,-1.94995 -0.787,-2.48534 -0.525,-0.54102 -1.188,-0.81153 -1.989,-0.81153 -0.479,0 -0.928,0.11835 -1.345,0.35505 -0.418,0.23106 -0.756,0.54384 -1.016,0.93833 -0.254,0.3945 -0.38,0.8369 -0.38,1.3272 l -1.033,-0.03381 c 0,-0.77209 0.186,-1.45118 0.559,-2.03729 0.378,-0.58611 0.868,-1.0426 1.472,-1.36947 0.604,-0.33251 1.252,-0.49876 1.946,-0.49876 0.728,0 1.399,0.18034 2.014,0.54102 0.615,0.35505 1.109,0.87635 1.481,1.5639 0.372,0.68756 0.558,1.52445 0.558,2.5107 0,1.00315 -0.183,1.85413 -0.55,2.55293 -0.366,0.6932 -0.857,1.2201 -1.472,1.5808 -0.615,0.3551 -1.292,0.5326 -2.031,0.5326 z m -4.391,-0.1691 V 0 h 1.447 v 13.2128 z"
     fill="black"
     id="path16"
     style="fill:#808080;fill-opacity:1" />
  <path
     d="m 118.256,17 c -0.226,0 -0.432,-0.0141 -0.618,-0.0423 -0.186,-0.0225 -0.302,-0.0451 -0.347,-0.0676 V 15.639 c 0.074,0.0338 0.195,0.062 0.364,0.0845 0.169,0.0226 0.339,0.0338 0.508,0.0338 0.361,0 0.666,-0.076 0.914,-0.2282 0.248,-0.1465 0.457,-0.3494 0.626,-0.6087 0.169,-0.2536 0.307,-0.541 0.415,-0.8622 l 0.27,-0.7946 -3.097,-9.02839 h 1.507 l 2.487,7.73499 h -0.203 l 2.437,-7.73499 H 125 l -3.292,9.74689 c -0.186,0.5467 -0.411,1.0482 -0.677,1.5047 -0.259,0.4565 -0.609,0.8228 -1.049,1.099 C 119.548,16.8619 118.972,17 118.256,17 Z"
     fill="black"
     id="path17"
     style="fill:#808080;fill-opacity:1" />
</svg>
